<?xml version="1.0" encoding="utf-8"?>
<!-- Generator: Adobe Illustrator 18.1.1, SVG Export Plug-In . SVG Version: 6.00 Build 0)  -->
<!DOCTYPE svg PUBLIC "-//W3C//DTD SVG 1.1//EN" "http://www.w3.org/Graphics/SVG/1.1/DTD/svg11.dtd">
<svg version="1.1" id="Layer_1" xmlns="http://www.w3.org/2000/svg" xmlns:xlink="http://www.w3.org/1999/xlink" x="0px" y="0px"
	 width="256px" height="256px" viewBox="0 0 256 256" style="enable-background:new 0 0 256 256;" xml:space="preserve">
<style type="text/css">
	.st0{fill:#3B3A33;}
</style>
<g>
	<path class="st0" d="M38.9,107.6l0.3-0.3c0.4-1.6,1.1-6.9-4-11.9c-5.1-5-11.2-5.1-13.1-5.1L22,90.5c0,1.8,0.3,7.8,5.2,12.9
		C32.2,108.5,37.3,108,38.9,107.6z"/>
	<path class="st0" d="M142.2,169.6c3.6-3.7,3.8-8,3.8-9.3l-0.1,0c-1.3-0.1-5.7,0.1-9.4,3.6c-0.7,0.6-1.2,1.3-1.6,2v-13.9
		c3.2,2.7,7.3,4.4,11.8,4.4h48.1c6.3,0,11.9-3.3,15.1-8.3h10.5c9.9,0,18-8.1,18-18v-16.6c1.7,0.1,4.5-0.3,7.3-3.2
		c3.6-3.7,3.8-8,3.8-9.4l0,0c-1.3-0.1-5.7,0.1-9.5,3.7c-0.6,0.6-1.1,1.2-1.6,1.9v-1c0-1.7-1.4-3.1-3.1-3.1c-1.7,0-3.1,1.4-3.1,3.1
		v12.8c-0.1-0.1-0.2-0.2-0.2-0.3c-3.7-3.6-8.2-3.7-9.5-3.7l0,0.1c0,1.3,0.2,5.6,3.8,9.4c2.2,2.2,4.3,3,6,3.2v3.3
		c0,6.5-5.3,11.8-11.8,11.8h-8c0.2-0.9,0.3-1.8,0.3-2.8c0.2-1.3,0.3-4.4-2.7-7.3c-3.4-3.2-7.3-3.3-8.5-3.3l0,0
		c0,1.2,0.2,5.1,3.4,8.4c0.6,0.6,1.1,1.1,1.7,1.4c0,0,0,0,0,0c0,6.5-5.3,11.8-11.8,11.8h-11.3c2.7-3.2,4.4-7.3,4.4-11.8v-23.6
		c2.2,0.2,6.5,0,10.7-4.4c5-5.1,5.2-11.1,5.2-12.9l-0.1-0.1c-1.8-0.1-7.9,0.1-13.1,5.1c-1.2,1.2-2.1,2.4-2.8,3.6V88.2
		c0-0.2,0-0.3,0-0.5c0,0,0-0.2,0-0.4c1.2,0.2,4.4,0.4,7.4-2.8c3.2-3.3,3.4-7.2,3.4-8.4l0,0c-1.2,0-5.2,0.1-8.5,3.3
		c-1,1-1.7,2-2.1,2.9c0.4-2.3,1.2-5,3-7.1c2.4-2.8,6.2-4.2,11.2-4.2c1.7,0,3.1-1.4,3.1-3.1c0-1.7-1.4-3.1-3.1-3.1
		c-7,0-12.3,2.1-15.9,6.3c-5.6,6.5-4.8,15.6-4.6,17.3v8.3c-0.7-1.5-1.7-3-3.3-4.6c-5.1-5-11.2-5.1-13.1-5.1l-0.1,0.1
		c0,1.8,0.3,7.8,5.2,12.9c4.6,4.7,9.2,4.6,11.2,4.3v17c-0.8-1.2-1.7-2.5-3-3.7c-6.4-6.2-14-6.4-16.2-6.3l-0.1,0.1
		c0,2.3,0.3,9.7,6.5,16c5,5.1,10,5.7,12.8,5.5v5.3c0,6.5-5.3,11.8-11.8,11.8h-23.2c-6.2,0-11.4-4.9-11.7-11.1l0.1,0.1
		c1.1,0.2,4.8,0.6,8.4-3.1c3.6-3.7,3.8-8,3.8-9.3l-0.1,0c-1.3-0.1-5.7,0.1-9.4,3.6c-1.7,1.6-2.5,3.3-2.9,4.8v-10.6
		c0.4,0.1,0.7,0.2,1.1,0.2c9.9,0,18-8.1,18-18V91c1.6,0.2,4.6-0.1,7.6-3.2c3.6-3.7,3.8-8,3.8-9.3l0,0c-1.3-0.1-5.7,0.1-9.4,3.6
		c-0.9,0.8-1.5,1.7-1.9,2.5V57.3c1.6,0.3,6.7,0.8,11.6-4.3c4.9-5.1,5.2-11.1,5.2-12.9l-0.1-0.1c-1.8-0.1-7.9,0.1-13.1,5.1
		c-1.9,1.9-3.1,3.8-3.7,5.6v-17c0-1.7-1.4-3.1-3.1-3.1c-1.2,0-2.2,0.7-2.7,1.7c-0.6-2.6-1.9-5.6-5-8.6c-6.4-6.2-14-6.4-16.2-6.3
		l-0.1,0.1c0,2.3,0.3,9.7,6.5,16c6.2,6.4,12.5,5.7,14.5,5.3l0,0v22.9c-0.7-1.5-1.7-3-3.3-4.6c-5.1-5-11.2-5.1-13.1-5.1l-0.1,0.1
		c0,1.8,0.3,7.8,5.2,12.9c4.6,4.7,9.2,4.6,11.2,4.3v37.5c0,6.5-5.3,11.8-11.8,11.8c-0.4,0-0.8,0.1-1.1,0.2v-5.2c0,0,0,0,0-0.1v-9.2
		l0,0c1,0.2,4.3,0.6,7.5-2.7c3.2-3.3,3.4-7.2,3.4-8.4l0,0c-1.2,0-5.1,0.1-8.5,3.3c-1.4,1.3-2.1,2.6-2.4,3.9V81.6c0-9.9-8.1-18-18-18
		h-3.3c-0.1-1.7-0.7-4.1-3.1-6.3c-3.6-3.5-8-3.6-9.3-3.6l0,0c0,1.3,0.2,5.5,3.7,9.1c0.3,0.3,0.5,0.5,0.8,0.7H95.4
		c-0.5-2.7-1.9-5.9-5.1-9c-6.4-6.2-14-6.4-16.2-6.3L74,48.4c0,2.3,0.3,9.7,6.5,16c5.8,6,11.7,5.7,14,5.4h22.4
		c6.5,0,11.8,5.3,11.8,11.8v8.9c-0.8-2.2-2.1-4.6-4.6-6.9c-6.4-6.2-14-6.4-16.2-6.3l-0.1,0.1c0,2.3,0.3,9.7,6.5,16
		c6.1,6.3,12.3,5.7,14.4,5.3v29.8c0,0,0,0,0,0v9.8c-0.7-1.4-1.7-2.9-3.2-4.4c-5.1-5-11.2-5.1-13.1-5l-0.1,0.1
		c0,1.8,0.3,7.8,5.2,12.9c4.5,4.6,9.1,4.6,11.1,4.3v7.1c0,6.5-5.3,11.8-11.8,11.8H106c2.7-3.2,4.4-7.3,4.4-11.8v-38.6
		c1.4,0.2,4.6,0.1,7.7-3c3.5-3.6,3.7-7.8,3.7-9l0,0c-1.3-0.1-5.5,0.1-9.1,3.5c-1,1-1.7,1.9-2.1,2.9v-5.8c0-9.6-7.5-17.4-17-17.9
		c-0.5-1-1.2-2.1-2.3-3.1c-3.6-3.5-8-3.6-9.3-3.6l0,0c0,1.3,0.2,5.5,3.7,9.1c1.7,1.8,3.4,2.6,4.9,2.9c0.5,0.5,1.2,0.8,2,0.8
		c6.5,0,11.8,5.3,11.8,11.8v17.2c-0.7-1.3-1.6-2.8-3.1-4.2c-5.1-5-11.2-5.1-13.1-5.1l-0.1,0.1c0,1.8,0.3,7.8,5.2,12.9
		c4.4,4.6,8.9,4.6,11,4.4V146c-0.7-1.9-1.9-4.1-4.1-6.2c-5.8-5.6-12.7-5.8-14.8-5.7l-0.1,0.1c0,2,0.3,8.8,5.9,14.6
		c5.5,5.7,11.1,5.2,13,4.8c-0.2,6.3-5.4,11.4-11.7,11.4H82.2H68.3v-4.9c1.6,0.2,5.5,0.3,9.3-3.6c4.1-4.2,4.3-9.2,4.3-10.7l-0.1-0.1
		c-1.5-0.1-6.6,0.1-10.8,4.2c-1.3,1.3-2.2,2.5-2.7,3.8v-25.5c1.4,0.2,4.6,0.1,7.7-3c3.5-3.6,3.7-7.8,3.7-9l0,0
		c-1.3-0.1-5.6,0.1-9.2,3.5c-1,0.9-1.6,1.9-2.1,2.8c0.3-6.2,5.4-11.2,11.7-11.2c1.7,0,3.1-1.4,3.1-3.1c0-1.7-1.4-3.1-3.1-3.1
		c-9.9,0-18,8.1-18,18v9.9c-0.4-1-1.1-2.1-2.2-3.2c-3.4-3.3-7.4-3.4-8.6-3.3l0,0c0,1.2,0.2,5.1,3.4,8.5c3.1,3.2,6.2,3.1,7.5,2.8V165
		h-4.7c-5.6,0-10.3-3.9-11.5-9.2l0.1,0.1c1.3,0.3,5.5,0.7,9.6-3.5c4.1-4.2,4.3-9.2,4.3-10.7l-0.1-0.1c-1.5-0.1-6.6,0.1-10.8,4.2
		c-2.3,2.3-3.2,4.6-3.5,6.4v-38c0,0.2,0.1,0.4,0.1,0.6l0.3,0.3c1.6,0.3,6.7,0.9,11.6-4.2c4.9-5.1,5.2-11.1,5.2-12.9l-0.1-0.1
		c-1.8-0.1-7.9,0.1-13.1,5.1c-2.7,2.6-3.8,5.3-4.2,7.5v-23c0-1.7-1.4-3.1-3.1-3.1c-1.7,0-3.1,1.4-3.1,3.1v39.4
		c-0.8-1.8-2.1-3.8-4.1-5.7c-6.4-6.2-14-6.4-16.2-6.3l-0.1,0.1c0,2.3,0.3,9.7,6.5,16c5.7,5.9,11.5,5.7,13.9,5.4v17
		c0,4.5,1.7,8.6,4.4,11.8H29.3c-5.4,0-9.9-3.6-11.3-8.5c2.1,0.3,6.5,0.1,10.8-4.4c4.9-5.1,5.2-11.1,5.2-12.9l-0.1-0.1
		c-1.8-0.1-7.9,0.1-13.1,5.1c-2.6,2.5-3.7,5-4.1,7.1c-0.6-0.7-1.4-1.2-2.4-1.2c-0.5,0-1,0.1-1.4,0.3c-0.3-1.4-1-3-2.7-4.6
		c-3.4-3.3-7.4-3.4-8.6-3.3l0,0c0,1.2,0.2,5.1,3.4,8.5c2.3,2.4,4.7,2.9,6.2,2.9c0.4,9.5,8.3,17.2,17.9,17.2h28.1h4.7v2
		c0,0.6,0,1.2,0.1,1.8c-2.9-1.9-5.8-2-6.8-1.9l0,0c0,1.2,0.2,5.1,3.4,8.5c3,3.1,6,3.1,7.3,2.9c2.9,3.5,7.1,6,11.8,6.5
		c-1.6,0.4-3.6,1.3-5.5,3.2c-3.9,4-4.1,8.6-4.1,10l0.1,0.1c1.4,0.1,6.2-0.1,10.2-3.9c4-3.9,3.4-8,3.1-9.2l0,0h19.4
		c-0.9,0.4-1.9,1.1-2.9,2.1c-3.3,3.4-3.4,7.3-3.4,8.5l0,0c1.2,0.1,5.2-0.1,8.6-3.3c3-2.9,3-5.9,2.8-7.3c5.9,0.6,10.6,5.6,10.6,11.7
		v18.6c0,6.5-5.3,11.8-11.8,11.8c-1.7,0-3.1,1.4-3.1,3.1c0,1.7,1.4,3.1,3.1,3.1c9.9,0,18-8.1,18-18v-18.6c0-2.7-0.6-5.3-1.7-7.6
		c7.8-1.9,13.7-9,13.7-17.4v-5.1C136.5,172.8,139.4,172.5,142.2,169.6z M117,189.6c-3.2-2.9-7.4-4.6-12-4.6h-0.1c0,0,0,0,0,0H86.5
		c0.9-0.4,1.8-1.1,2.6-2c3.2-3.3,3.4-7.2,3.4-8.4l0,0c-1.2-0.1-5.1,0.1-8.5,3.3c-2.9,2.8-2.9,5.7-2.7,7.1h-1.2
		c-6.5,0-11.8-5.3-11.8-11.8v-2h13.9h10.3h24.4c4.5,0,8.6-1.7,11.8-4.4v11.1C128.7,184.3,123.4,189.5,117,189.6z"/>
	<path class="st0" d="M154.2,33.7c1,0.2,4.3,0.6,7.5-2.7c3.2-3.3,3.4-7.2,3.4-8.4l0,0c-1.2,0-5.1,0.1-8.5,3.3
		c-3.3,3.2-2.9,6.7-2.6,7.7L154.2,33.7z"/>
	<path class="st0" d="M254.3,138L254.3,138c-1.4-0.1-5.8,0-9.5,3.6c-0.5,0.5-1,1.1-1.4,1.6c-0.5-1.1-1.6-2-2.9-2
		c-1.7,0-3.1,1.4-3.1,3.1v18c-0.6-1.5-1.7-3.2-3.3-4.8c-5.1-4.9-11.1-5.1-13-5l-0.1,0.1c0,1.8,0.3,7.7,5.2,12.8
		c4.6,4.7,9.3,4.6,11.2,4.3c-0.3,6.2-5.4,11.2-11.7,11.2h-28.6c1-0.6,2.1-1.4,3.2-2.5c4.6-4.8,4.9-10.4,4.9-12.1l-0.1-0.1
		c-1.7-0.1-7.4,0.1-12.2,4.7c-3.9,3.8-4.2,7.8-4,9.9h-13.3c-6.1,0-11.1-4.6-11.7-10.5h20.1c0.9,0,1.7-0.4,2.3-1
		c1.4-0.1,3.4-0.7,5.4-2.7c3.1-3.2,3.3-6.9,3.2-8l0,0c-1.1,0-4.9,0.1-8.1,3.1c-0.9,0.9-1.5,1.7-1.9,2.6c-0.3-0.1-0.5-0.1-0.8-0.1
		h-24.8c-9.9,0-18,8.1-18,18v39.3c0,9.9,8.1,18,18,18c1.7,0,3.1-1.4,3.1-3.1c0-1.7-1.4-3.1-3.1-3.1c-6.5,0-11.8-5.3-11.8-11.8v-20.1
		c1.1,0.1,3.1-0.1,5-2.1c2.4-2.4,2.5-5.3,2.5-6.1l0,0c-0.9,0-3.8,0-6.2,2.4c-0.5,0.5-1,1.1-1.3,1.6v-7.7c1.4,0.1,3.8-0.3,6.2-2.8
		c3.1-3.2,3.3-6.9,3.2-8l0,0c-1.1,0-4.9,0.1-8.1,3.1c-0.5,0.5-0.9,1-1.3,1.5v-1c0-6,4.5-10.9,10.3-11.7c0.7,9.3,8.4,16.6,17.9,16.6
		h27c-0.3,1.9-0.2,6.1,4.1,10.2c4.8,4.6,10.4,4.9,12.1,4.9l0.1-0.1c0.1-1.7-0.1-7.4-4.7-12.2c-1.3-1.3-2.6-2.2-3.8-2.8h15.5
		c9.9,0,18-8.1,18-18v-18.5c1.7,0,4.3-0.6,6.9-3.2C254.1,143.7,254.3,139.4,254.3,138z"/>
</g>
<g>
</g>
<g>
</g>
<g>
</g>
<g>
</g>
<g>
</g>
<g>
</g>
<g>
</g>
<g>
</g>
<g>
</g>
<g>
</g>
<g>
</g>
<g>
</g>
<g>
</g>
<g>
</g>
<g>
</g>
</svg>
